<svg fill="none" height="14" viewBox="0 0 14 14" width="14" xmlns="http://www.w3.org/2000/svg"><path d="m7 0c-3.85 0-7 3.15-7 7s3.15 7 7 7 7-3.15 7-7-3.15-7-7-7zm3.5875 10.7625c-.35-.6125-1.05-.875-1.8375-1.1375-.6125-.175-.7875-.525-.875-1.05.9625-.35 1.75-1.3125 1.75-2.45 0-1.4875-1.1375-2.625-2.625-2.625s-2.625 1.1375-2.625 2.625c0 1.1375.7 2.1 1.75 2.45-.0875.525-.2625.875-.875 1.05-.7875.2625-1.4875.525-1.8375 1.1375-1.05-.9625-1.6625-2.275-1.6625-3.7625 0-2.8875 2.3625-5.25 5.25-5.25s5.25 2.3625 5.25 5.25c0 1.4875-.6125 2.8-1.6625 3.7625z" fill="#454545"/></svg>